<svg width="32" height="32" viewBox="0 0 32 32" fill="none" xmlns="http://www.w3.org/2000/svg">
  <rect width="32" height="32" rx="6" fill="#0550ae"/>
  <path d="M10 8c-1.5 0-2 1-2 2v3c0 1-1 2-2 2 1 0 2 1 2 2v3c0 1 .5 2 2 2" stroke="#fff" stroke-width="1.8" stroke-linecap="round" fill="none"/>
  <path d="M22 8c1.5 0 2 1 2 2v3c0 1 1 2 2 2-1 0-2 1-2 2v3c0 1-.5 2-2 2" stroke="#fff" stroke-width="1.8" stroke-linecap="round" fill="none"/>
  <rect x="12" y="12" width="8" height="1.5" rx="0.75" fill="#7ee787"/>
  <rect x="13" y="15" width="6" height="1.5" rx="0.75" fill="#ffa657"/>
  <rect x="12" y="18" width="8" height="1.5" rx="0.75" fill="#d2a8ff"/>
</svg>
